<svg width="715" height="312" viewBox="0 0 715 312" fill="none" xmlns="http://www.w3.org/2000/svg">
<path d="M157.521 80.7691C130.362 80.7691 117 64.9082 117 41.1169V40.2478C117 16.3479 133.947 0.595642 156.652 0.595642C176.858 0.595642 190.873 9.93834 192.719 30.4706H169.797C168.928 22.5401 164.583 18.1947 156.761 18.1947C146.766 18.1947 140.465 26.0165 140.465 40.1392V41.0083C140.465 55.0223 146.44 62.9528 157.087 62.9528C164.909 62.9528 170.449 58.8246 171.535 50.2423H193.697C192.176 70.34 177.619 80.7691 157.521 80.7691Z" fill="#F4880C"/>
<path d="M237.346 80.7691C215.401 80.7691 202.908 69.6882 202.908 47.961V1.79064H225.179V46.9833C225.179 57.9555 227.895 63.2787 237.346 63.2787C246.58 63.2787 249.513 58.2814 249.513 46.6573V1.79064H272.001V47.6351C272.001 70.2314 258.747 80.7691 237.346 80.7691Z" fill="#F4880C"/>
<path d="M314.346 80.7691C292.619 80.7691 281.538 71.6437 280.886 54.8051H302.07C302.613 60.3455 305.112 64.9082 314.346 64.9082C320.756 64.9082 324.34 61.7578 324.34 57.1951C324.34 52.4151 321.407 51.1114 312.065 49.6992C290.12 47.0919 282.733 40.5737 282.733 24.9301C282.733 10.9161 294.248 0.704277 312.825 0.704277C331.51 0.704277 342.048 8.52607 343.46 24.9301H322.82C322.059 19.3897 318.909 16.5651 312.825 16.5651C306.85 16.5651 303.808 19.2811 303.808 23.192C303.808 27.5374 306.198 29.4928 315.867 30.7965C335.53 32.9692 345.633 38.0751 345.633 54.9137C345.633 69.145 334.335 80.7691 314.346 80.7691Z" fill="#F4880C"/>
<path d="M368.982 79.4655V18.9551H348.885V1.79064H411.459V18.9551H391.361V79.4655H368.982Z" fill="#F4880C"/>
<path d="M455.541 63.2787C466.513 63.2787 473.357 54.8051 473.357 40.8996V40.0305C473.357 26.2338 466.404 18.0861 455.432 18.0861C444.46 18.0861 437.616 26.0165 437.616 40.1392V41.0083C437.616 55.131 444.786 63.2787 455.541 63.2787ZM455.106 80.7691C430.011 80.7691 414.368 64.4737 414.368 41.1169V40.2478C414.368 16.5651 432.184 0.704277 455.432 0.704277C479.115 0.704277 496.605 15.5874 496.605 39.7046V40.5737C496.605 64.4737 480.201 80.7691 455.106 80.7691Z" fill="#F4880C"/>
<path d="M507.505 79.4655V1.79064H536.511L551.394 43.181L566.277 1.79064H594.74V79.4655H572.578V31.1224L553.567 79.4655H546.18L527.386 31.1224V79.4655H507.505Z" fill="#F4880C"/>
<path d="M40 194.675L64.8777 117H93.6662L118.327 194.675H94.7526L90.6244 180.226H64.8777L60.7495 194.675H40ZM77.8054 135.034L69.2231 164.909H86.279L77.8054 135.034Z" fill="white"/>
<path d="M127.242 194.675V117H149.621V177.402H178.953V194.675H127.242Z" fill="white"/>
<path d="M220.866 195.978C198.921 195.978 186.428 184.898 186.428 163.17V117H208.698V162.193C208.698 173.165 211.414 178.488 220.866 178.488C230.1 178.488 233.033 173.491 233.033 161.867V117H255.52V162.844C255.52 185.441 242.267 195.978 220.866 195.978Z" fill="white"/>
<path d="M269.933 194.675V117H298.939L313.822 158.39L328.706 117H357.168V194.675H335.006V146.332L315.995 194.675H308.608L289.814 146.332V194.675H269.933Z" fill="white"/>
<path d="M372.745 194.675V117H395.232V194.675H372.745Z" fill="white"/>
<path d="M410.503 194.675V117H435.598L460.475 160.78V117H479.921V194.675H458.411L430.057 145.897V194.675H410.503Z" fill="white"/>
<path d="M528.845 195.978C506.9 195.978 494.407 184.898 494.407 163.17V117H516.677V162.193C516.677 173.165 519.393 178.488 528.845 178.488C538.079 178.488 541.012 173.491 541.012 161.867V117H563.5V162.844C563.5 185.441 550.246 195.978 528.845 195.978Z" fill="white"/>
<path d="M577.912 194.675V117H606.918L621.801 158.39L636.685 117H665.147V194.675H642.986V146.332L623.974 194.675H616.587L597.793 146.332V194.675H577.912Z" fill="white"/>
<path d="M0 310.697V233.085H53.861V250.236H22.2422V263.588H47.4282V279.436H22.2422V293.547H55.6054V310.697H0Z" fill="#F4880C"/>
<path d="M61.6353 310.697L85.731 270.752L63.4888 233.085H88.8929L101.104 256.206L113.098 233.085H135.994L115.06 269.992L139.156 310.697H113.643L99.1417 283.995L84.6407 310.697H61.6353Z" fill="#F4880C"/>
<path d="M162.405 310.697V250.236H142.234V233.085H205.036V250.236H184.865V310.697H162.405Z" fill="#F4880C"/>
<path d="M214.866 310.697V233.085H245.395C265.783 233.085 277.123 241.335 277.123 257.726V258.16C277.123 269.232 271.235 275.419 263.058 278.567L281.702 310.697H258.151L242.342 282.909H237.108V310.697H214.866ZM237.108 268.472H244.304C251.828 268.472 255.535 265.324 255.535 259.028V258.594C255.535 252.299 251.609 249.802 244.413 249.802H237.108V268.472Z" fill="#F4880C"/>
<path d="M323.31 312C301.286 312 288.747 300.928 288.747 279.218V233.085H311.098V278.242C311.098 289.205 313.824 294.524 323.31 294.524C332.577 294.524 335.521 289.531 335.521 277.916V233.085H358.09V278.893C358.09 301.471 344.789 312 323.31 312Z" fill="#F4880C"/>
<path d="M400.589 312C378.783 312 367.662 302.882 367.008 286.057H388.269C388.814 291.593 391.322 296.152 400.589 296.152C407.022 296.152 410.62 293.004 410.62 288.445C410.62 283.669 407.676 282.366 398.299 280.955C376.275 278.35 368.861 271.837 368.861 256.206C368.861 242.204 380.419 232 399.063 232C417.816 232 428.392 239.815 429.809 256.206H409.094C408.33 250.67 405.168 247.848 399.063 247.848C393.066 247.848 390.013 250.562 390.013 254.469C390.013 258.811 392.412 260.765 402.116 262.068C421.85 264.239 431.99 269.341 431.99 286.166C431.99 300.385 420.651 312 400.589 312Z" fill="#F4880C"/>
<path d="M443.052 310.697V233.085H465.621V310.697H443.052Z" fill="#F4880C"/>
<path d="M518.126 294.524C529.138 294.524 536.007 286.057 536.007 272.163V271.294C536.007 257.509 529.029 249.368 518.017 249.368C507.005 249.368 500.136 257.292 500.136 271.403V272.271C500.136 286.383 507.332 294.524 518.126 294.524ZM517.69 312C492.504 312 476.804 295.718 476.804 272.38V271.512C476.804 247.848 494.685 232 518.017 232C541.786 232 559.34 246.871 559.34 270.969V271.837C559.34 295.718 542.876 312 517.69 312Z" fill="#F4880C"/>
<path d="M570.279 310.697V233.085H595.465L620.433 276.83V233.085H639.95V310.697H618.362L589.905 261.959V310.697H570.279Z" fill="#F4880C"/>
<path d="M683.599 312C661.793 312 650.672 302.882 650.018 286.057H671.279C671.824 291.593 674.332 296.152 683.599 296.152C690.032 296.152 693.63 293.004 693.63 288.445C693.63 283.669 690.686 282.366 681.31 280.955C659.286 278.35 651.872 271.837 651.872 256.206C651.872 242.204 663.429 232 682.073 232C700.826 232 711.402 239.815 712.819 256.206H692.104C691.341 250.67 688.179 247.848 682.073 247.848C676.076 247.848 673.023 250.562 673.023 254.469C673.023 258.811 675.422 260.765 685.126 262.068C704.86 264.239 715 269.341 715 286.166C715 300.385 703.661 312 683.599 312Z" fill="#F4880C"/>
</svg>
