<svg width="24" height="24" viewBox="0 0 24 24" fill="none" xmlns="http://www.w3.org/2000/svg">
<path fill-rule="evenodd" clip-rule="evenodd" d="M1.56359 1.56411C2.31519 0.812115 3.53395 0.811943 4.28577 1.56372L12 9.27757L19.7142 1.56372C20.466 0.811943 21.6848 0.812115 22.4364 1.56411C23.188 2.3161 23.1878 3.53514 22.436 4.28692L14.7226 12L22.436 19.7131C23.1878 20.4649 23.188 21.6839 22.4364 22.4359C21.6848 23.1879 20.466 23.1881 19.7142 22.4363L12 14.7224L4.28577 22.4363C3.53395 23.1881 2.31519 23.1879 1.56359 22.4359C0.811986 21.6839 0.812159 20.4649 1.56397 19.7131L9.27744 12L1.56397 4.28692C0.812159 3.53514 0.811986 2.3161 1.56359 1.56411Z" fill="#0E4D7F"/>
</svg>
