<svg width="72" height="72" viewBox="0 0 72 72" fill="none" xmlns="http://www.w3.org/2000/svg">
<path d="M64.6667 0.166504H7.33332C3.39166 0.166504 0.166656 3.3915 0.166656 7.33317V50.3332C0.166656 54.2748 3.39166 57.4998 7.33332 57.4998H21.6667V68.2498C21.6667 70.3998 23.1 71.8332 25.25 71.8332H27.0417C27.7583 71.8332 28.8333 71.4748 29.55 70.7582L42.8083 57.4998H64.6667C68.6083 57.4998 71.8333 54.2748 71.8333 50.3332V7.33317C71.8333 3.3915 68.6083 0.166504 64.6667 0.166504ZM32.4167 39.5832H18.0833V24.5332L22.7417 14.4998H29.9083L24.8917 25.2498H32.4167V39.5832ZM53.9167 39.5832H39.5833V24.5332L44.2417 14.4998H51.4083L46.3917 25.2498H53.9167V39.5832Z" fill="#F4880C"/>
</svg>
