<svg width="330" height="290" viewBox="0 0 330 290" fill="none" xmlns="http://www.w3.org/2000/svg">
<path fill-rule="evenodd" clip-rule="evenodd" d="M145.559 66.1485C145.559 39.5567 123.836 18 97.0393 18L94.377 18.0709C68.8183 19.4425 48.5193 40.4434 48.5193 66.1485C48.5193 92.7409 70.2427 114.298 97.0393 114.298L99.7016 114.226C125.26 112.855 145.559 91.8542 145.559 66.1485ZM110.902 224.353C110.902 239.387 114.952 253.482 122.029 265.623H0V216.098C0 176.096 30.9755 143.479 69.7794 141.873L72.779 141.812H121.299C133.928 141.812 145.805 145.094 156.156 150.87C129.287 164.553 110.902 192.322 110.902 224.353ZM153.337 280L194.079 255.305L234.82 280L223.743 233.917L260 203.097L212.413 199.311L194.079 155.568L175.745 199.311L128.157 203.097L164.414 233.917L153.337 280Z" fill="white"/>
</svg>
