<svg width="52" height="52" viewBox="0 0 52 52" fill="none" xmlns="http://www.w3.org/2000/svg">
<path fill-rule="evenodd" clip-rule="evenodd" d="M26 49.2632C38.8479 49.2632 49.2632 38.8479 49.2632 26C49.2632 13.1521 38.8479 2.73684 26 2.73684C13.1521 2.73684 2.73684 13.1521 2.73684 26C2.73684 38.8479 13.1521 49.2632 26 49.2632ZM26 52C40.3594 52 52 40.3594 52 26C52 11.6406 40.3594 0 26 0C11.6406 0 0 11.6406 0 26C0 40.3594 11.6406 52 26 52Z" fill="white"/>
<path d="M15.0526 36.9474C14.3 36.9474 13.6559 36.6796 13.1204 36.1441C12.5849 35.6086 12.3167 34.9641 12.3158 34.2105V17.7895C12.3158 17.0368 12.584 16.3928 13.1204 15.8573C13.6568 15.3218 14.3009 15.0535 15.0526 15.0526H36.9474C37.7 15.0526 38.3445 15.3208 38.8809 15.8573C39.4174 16.3937 39.6851 17.0378 39.6842 17.7895V34.2105C39.6842 34.9632 39.4165 35.6077 38.8809 36.1441C38.3454 36.6805 37.7009 36.9483 36.9474 36.9474H15.0526ZM26 27.3684L36.9474 20.5263V17.7895L26 24.6316L15.0526 17.7895V20.5263L26 27.3684Z" fill="white"/>
</svg>
