<svg width="330" height="290" viewBox="0 0 330 290" fill="none" xmlns="http://www.w3.org/2000/svg">
<path d="M111.553 130.256C142.453 130.256 167.502 105.127 167.502 74.1282C167.502 43.1294 142.453 18 111.553 18C80.6533 18 55.6041 43.1294 55.6041 74.1282C55.6041 105.127 80.6533 130.256 111.553 130.256Z" fill="white"/>
<path d="M147.409 232.868H208.035V245.032H147.409V232.868Z" fill="white"/>
<path d="M95.444 250.246V276.311C95.444 278.616 96.3565 280.826 97.9807 282.455C99.6049 284.085 101.808 285 104.105 285H251.339C253.636 285 255.839 284.085 257.463 282.455C259.088 280.826 260 278.616 260 276.311V189.426C260 187.121 259.088 184.911 257.463 183.282C255.839 181.652 253.636 180.737 251.339 180.737H190.713V167.965C190.713 165.661 189.801 163.451 188.177 161.821C186.552 160.192 184.349 159.276 182.052 159.276C179.755 159.276 177.553 160.192 175.928 161.821C174.304 163.451 173.392 165.661 173.392 167.965V180.737H156.07V149.632C141.353 147.216 126.466 145.996 111.553 145.983C78.6662 145.842 46.1477 152.93 16.2839 166.749C11.3687 169.075 7.2221 172.768 4.33605 177.388C1.44999 182.008 -0.0543546 187.362 0.00150074 192.814V250.246H95.444ZM242.678 267.623H112.766V198.114H173.392V201.763C173.392 204.068 174.304 206.278 175.928 207.907C177.553 209.537 179.755 210.452 182.052 210.452C184.349 210.452 186.552 209.537 188.177 207.907C189.801 206.278 190.713 204.068 190.713 201.763V198.114H242.678V267.623Z" fill="white"/>
</svg>
