<svg width="330" height="290" viewBox="0 0 330 290" fill="none" xmlns="http://www.w3.org/2000/svg">
<path d="M0 251V211.956C0 204.286 1.97945 197.081 5.93836 190.342C9.89726 183.602 15.3699 178.489 22.3562 175.003C34.2329 168.96 47.6233 163.847 62.5274 159.664C77.4315 155.481 93.8493 153.389 111.781 153.389C129.712 153.389 146.13 155.481 161.034 159.664C175.938 163.847 189.329 168.96 201.205 175.003C208.192 178.489 213.664 183.602 217.623 190.342C221.582 197.081 223.562 204.286 223.562 211.956V251H0ZM111.781 139.444C96.4109 139.444 83.2534 133.983 72.3082 123.06C61.363 112.137 55.8904 99.0056 55.8904 83.6667H52.3973C50.3014 83.6667 48.6153 83.0299 47.3392 81.7563C46.063 80.4827 45.4203 78.7954 45.411 76.6944C45.4016 74.5935 46.0444 72.9062 47.3392 71.6326C48.634 70.359 50.32 69.7222 52.3973 69.7222H55.8904C55.8904 59.2639 58.4521 49.8514 63.5753 41.4847C68.6986 33.1181 75.452 26.4944 83.8356 21.6139V34.8611C83.8356 36.9528 84.4784 38.6401 85.7638 39.9229C87.0493 41.2058 88.7353 41.8426 90.8219 41.8333C92.9085 41.824 94.5992 41.1872 95.894 39.9229C97.1888 38.6586 97.8268 36.9714 97.8082 34.8611V16.0361C99.9041 15.3389 102.116 14.8183 104.445 14.4743C106.774 14.1304 109.219 13.9537 111.781 13.9444C114.342 13.9351 116.788 14.1118 119.116 14.4743C121.445 14.8369 123.658 15.3575 125.753 16.0361V34.8611C125.753 36.9528 126.396 38.6401 127.682 39.9229C128.967 41.2058 130.653 41.8426 132.74 41.8333C134.826 41.824 136.517 41.1872 137.812 39.9229C139.107 38.6586 139.745 36.9714 139.726 34.8611V21.6139C148.11 26.4944 154.863 33.1181 159.986 41.4847C165.11 49.8514 167.671 59.2639 167.671 69.7222H171.164C173.26 69.7222 174.951 70.3637 176.236 71.6466C177.522 72.9294 178.16 74.6121 178.151 76.6944C178.141 78.7768 177.503 80.4641 176.236 81.7563C174.97 83.0485 173.279 83.6853 171.164 83.6667H167.671C167.671 99.0056 162.199 112.137 151.253 123.06C140.308 133.983 127.151 139.444 111.781 139.444ZM111.781 111.556C119.466 111.556 126.047 108.827 131.524 103.37C137.001 97.9132 139.735 91.3454 139.726 83.6667H83.8356C83.8356 91.3361 86.5742 97.9039 92.0515 103.37C97.5288 108.836 104.105 111.565 111.781 111.556ZM216.575 167.333L214.479 156.875C213.082 156.41 211.745 155.89 210.469 155.313C209.193 154.737 207.968 153.863 206.795 152.692L197.014 156.178L190.027 143.628L197.712 136.656V128.289L190.027 121.317L197.014 108.767L206.795 112.253C207.726 111.323 208.89 110.51 210.288 109.812C211.685 109.115 213.082 108.534 214.479 108.069L216.575 97.6111H230.548L232.644 108.069C234.041 108.534 235.438 109.115 236.836 109.812C238.233 110.51 239.397 111.323 240.329 112.253L250.11 108.767L257.096 121.317L249.411 128.289V136.656L257.096 143.628L250.11 156.178L240.329 152.692C239.164 153.854 237.944 154.728 236.668 155.313C235.392 155.899 234.05 156.419 232.644 156.875L230.548 167.333H216.575ZM223.562 142.931C226.356 142.931 228.801 141.885 230.897 139.793C232.993 137.701 234.041 135.261 234.041 132.472C234.041 129.683 232.993 127.243 230.897 125.151C228.801 123.06 226.356 122.014 223.562 122.014C220.767 122.014 218.322 123.06 216.226 125.151C214.13 127.243 213.082 129.683 213.082 132.472C213.082 135.261 214.13 137.701 216.226 139.793C218.322 141.885 220.767 142.931 223.562 142.931ZM248.712 97.6111L245.918 82.9694C243.822 82.2722 241.903 81.403 240.161 80.3618C238.419 79.3206 236.845 78.0982 235.438 76.6944L220.767 81.575L210.986 64.8417L222.863 54.3833C222.397 53.2213 222.164 52.2917 222.164 51.5944V46.0167C222.164 45.3194 222.397 44.3898 222.863 43.2278L210.986 32.7694L220.767 16.0361L235.438 20.9167C236.836 19.5222 238.41 18.2998 240.161 17.2493C241.912 16.1988 243.831 15.3296 245.918 14.6417L248.712 0H268.274L271.069 14.6417C273.164 15.3389 275.088 16.2127 276.839 17.2632C278.59 18.3137 280.16 19.5315 281.548 20.9167L296.219 16.0361L306 32.7694L294.123 43.2278C294.589 44.3898 294.822 45.3194 294.822 46.0167V51.5944C294.822 52.2917 294.589 53.2213 294.123 54.3833L306 64.8417L296.219 81.575L281.548 76.6944C280.151 78.0889 278.581 79.3113 276.839 80.3618C275.097 81.4123 273.174 82.2815 271.069 82.9694L268.274 97.6111H248.712ZM258.493 66.2361C263.384 66.2361 267.519 64.5488 270.901 61.1743C274.282 57.7997 275.968 53.6768 275.959 48.8056C275.95 43.9343 274.259 39.8067 270.887 36.4229C267.515 33.039 263.384 31.3564 258.493 31.375C253.603 31.3936 249.467 33.0809 246.085 36.4368C242.704 39.7928 241.018 43.9157 241.027 48.8056C241.037 53.6954 242.727 57.823 246.099 61.1882C249.471 64.5535 253.603 66.2361 258.493 66.2361Z" fill="white"/>
</svg>
