<svg width="48" height="48" viewBox="0 0 48 48" fill="none" xmlns="http://www.w3.org/2000/svg">
<path d="M27.864 24.5832C27.8495 25.3435 27.6096 26.0823 27.1747 26.7061C26.7398 27.3299 26.1295 27.8105 25.4212 28.087C24.7128 28.3636 23.9383 28.4236 23.1958 28.2594C22.4533 28.0953 21.7763 27.7144 21.2505 27.165C20.7248 26.6157 20.3739 25.9226 20.2425 25.1736C20.1111 24.4246 20.205 23.6535 20.5124 22.958C20.8197 22.2625 21.3266 21.6738 21.9689 21.2667C22.6112 20.8596 23.3598 20.6524 24.12 20.6712C25.1302 20.7087 26.086 21.138 26.7849 21.8683C27.4839 22.5986 27.8709 23.5724 27.864 24.5832Z" fill="white"/>
<path d="M30.6311 12.5593H17.6113C16.323 12.5593 15.0874 13.0711 14.1765 13.9821C13.2655 14.893 12.7537 16.1286 12.7537 17.4169V30.7295C12.7537 31.3674 12.8794 31.9991 13.1235 32.5884C13.3676 33.1778 13.7254 33.7132 14.1765 34.1643C14.6275 34.6154 15.163 34.9732 15.7524 35.2173C16.3417 35.4614 16.9734 35.5871 17.6113 35.5871H30.6311C31.269 35.5871 31.9007 35.4614 32.49 35.2173C33.0794 34.9732 33.6148 34.6154 34.0659 34.1643C34.517 33.7132 34.8748 33.1778 35.1189 32.5884C35.363 31.9991 35.4887 31.3674 35.4887 30.7295V17.4409C35.4912 16.8011 35.3674 16.1672 35.1245 15.5754C34.8816 14.9835 34.5243 14.4455 34.073 13.992C33.6218 13.5385 33.0854 13.1785 32.4948 12.9327C31.9042 12.6868 31.2709 12.56 30.6311 12.5593ZM24.12 31.0943C22.8311 31.1234 21.5628 30.7678 20.4769 30.0729C19.3911 29.378 18.5368 28.3753 18.0233 27.1928C17.5098 26.0103 17.3603 24.7016 17.5938 23.4337C17.8273 22.1659 18.4333 20.9963 19.3345 20.0744C20.2356 19.1525 21.391 18.5199 22.6532 18.2575C23.9154 17.9951 25.2272 18.1147 26.4211 18.6011C27.615 19.0875 28.6369 19.9186 29.3564 20.9884C30.0759 22.0581 30.4604 23.318 30.4607 24.6072C30.4712 25.4497 30.3154 26.286 30.0022 27.0682C29.6891 27.8505 29.2247 28.5633 28.6358 29.1658C28.0468 29.7684 27.3448 30.2489 26.5699 30.5798C25.7951 30.9107 24.9625 31.0855 24.12 31.0943ZM31.1663 18.1225C31.0079 18.1225 30.8512 18.0909 30.7052 18.0296C30.5591 17.9683 30.4268 17.8785 30.316 17.7654C30.2051 17.6523 30.1179 17.5182 30.0596 17.371C30.0012 17.2238 29.9727 17.0664 29.9759 16.9081C29.9759 16.586 30.1039 16.2771 30.3316 16.0494C30.5593 15.8216 30.8682 15.6937 31.1903 15.6937C31.5124 15.6937 31.8213 15.8216 32.049 16.0494C32.2767 16.2771 32.4047 16.586 32.4047 16.9081C32.4095 17.0795 32.3771 17.25 32.3099 17.4078C32.2427 17.5656 32.1421 17.707 32.0152 17.8223C31.8882 17.9376 31.7379 18.0241 31.5744 18.076C31.4109 18.1278 31.2381 18.1436 31.0679 18.1225H31.1663Z" fill="white"/>
<path d="M24.12 0.000300414C17.7549 -0.0315252 11.6378 2.46648 7.1145 6.9448C2.59118 11.4231 0.032126 17.5149 0.000300414 23.88C-0.0315252 30.2451 2.46648 36.3622 6.9448 40.8855C11.4231 45.4088 17.5149 47.9679 23.88 47.9997C27.0317 48.0155 30.1556 47.4103 33.0734 46.2188C35.9912 45.0272 38.6458 43.2726 40.8855 41.0552C43.1252 38.8378 44.9063 36.2009 46.1269 33.2952C47.3476 30.3894 47.9839 27.2717 47.9997 24.12C48.0155 20.9683 47.4103 17.8444 46.2188 14.9266C45.0272 12.0088 43.2726 9.35422 41.0552 7.1145C38.8378 4.87478 36.2009 3.09375 33.2952 1.87309C30.3894 0.652433 27.2717 0.0160588 24.12 0.000300414ZM38.695 30.4847C38.7017 31.5614 38.4946 32.6287 38.0857 33.6248C37.6768 34.6209 37.0743 35.5259 36.3131 36.2874C35.5518 37.0488 34.647 37.6516 33.651 38.0608C32.6551 38.47 31.5878 38.6774 30.5111 38.671H17.7337C16.657 38.6777 15.5896 38.4706 14.5936 38.0617C13.5975 37.6528 12.6925 37.0503 11.931 36.2891C11.1696 35.5278 10.5668 34.623 10.1576 33.627C9.74842 32.6311 9.54101 31.5638 9.54738 30.4871V17.7073C9.54069 16.6306 9.74779 15.5632 10.1567 14.5672C10.5656 13.5711 11.1681 12.6661 11.9293 11.9046C12.6906 11.1432 13.5954 10.5404 14.5914 10.1312C15.5873 9.72202 16.6546 9.51461 17.7313 9.52098H30.5111C31.5876 9.51461 32.6547 9.72195 33.6505 10.131C34.6463 10.54 35.551 11.1426 36.3122 11.9038C37.0734 12.665 37.676 13.5697 38.085 14.5655C38.494 15.5613 38.7014 16.6284 38.695 17.7049V30.4847Z" fill="white"/>
</svg>
