<svg width="52" height="52" viewBox="0 0 52 52" fill="none" xmlns="http://www.w3.org/2000/svg">
<path fill-rule="evenodd" clip-rule="evenodd" d="M26 48.9412C38.6701 48.9412 48.9412 38.6701 48.9412 26C48.9412 13.3299 38.6701 3.05882 26 3.05882C13.3299 3.05882 3.05882 13.3299 3.05882 26C3.05882 38.6701 13.3299 48.9412 26 48.9412ZM26 52C40.3594 52 52 40.3594 52 26C52 11.6406 40.3594 0 26 0C11.6406 0 0 11.6406 0 26C0 40.3594 11.6406 52 26 52Z" fill="white"/>
<path d="M21.4197 23.7059C21.4197 22.3876 21.9434 21.1233 22.8756 20.1911C23.8077 19.259 25.072 18.7353 26.3903 18.7353C27.7086 18.7353 28.9729 19.259 29.905 20.1911C30.8372 21.1233 31.3609 22.3876 31.3609 23.7059C31.3609 25.0242 30.8372 26.2885 29.905 27.2206C28.9729 28.1528 27.7086 28.6765 26.3903 28.6765C25.072 28.6765 23.8077 28.1528 22.8756 27.2206C21.9434 26.2885 21.4197 25.0242 21.4197 23.7059Z" fill="white"/>
<path fill-rule="evenodd" clip-rule="evenodd" d="M13.8094 21.9884C14.0638 18.9139 15.4645 16.0473 17.7338 13.9574C20.003 11.8675 22.975 10.7069 26.06 10.7059H26.7207C29.8057 10.7069 32.7776 11.8675 35.0468 13.9574C37.3161 16.0473 38.7169 18.9139 38.9712 21.9884C39.2536 25.421 38.1938 28.8293 36.0149 31.4967L28.6844 40.4621C28.4066 40.8022 28.0566 41.0762 27.6598 41.2644C27.2631 41.4526 26.8294 41.5502 26.3903 41.5502C25.9512 41.5502 25.5175 41.4526 25.1208 41.2644C24.724 41.0762 24.374 40.8022 24.0962 40.4621L16.7673 31.4967C14.5878 28.8296 13.5275 25.4212 13.8094 21.9884ZM26.3903 16.4412C24.4636 16.4412 22.6158 17.2066 21.2534 18.569C19.891 19.9314 19.1256 21.7792 19.1256 23.7059C19.1256 25.6326 19.891 27.4804 21.2534 28.8428C22.6158 30.2052 24.4636 30.9706 26.3903 30.9706C28.317 30.9706 30.1648 30.2052 31.5272 28.8428C32.8896 27.4804 33.655 25.6326 33.655 23.7059C33.655 21.7792 32.8896 19.9314 31.5272 18.569C30.1648 17.2066 28.317 16.4412 26.3903 16.4412Z" fill="white"/>
</svg>
