<svg width="300" height="95" viewBox="0 0 300 95" fill="none" xmlns="http://www.w3.org/2000/svg">
<path d="M47.1734 0.00235792C47.4381 0.00349057 47.7029 0.00462323 47.9757 0.0057902C52.1205 0.0314118 56.0654 0.263094 60.0502 1.49215C60.4414 1.61103 60.4414 1.61103 60.8406 1.73231C68.283 4.07207 74.5912 7.90905 80.2492 13.2427C80.5222 13.4932 80.7952 13.7438 81.0764 14.002C89.9976 22.4784 94.3985 34.592 94.7252 46.7015C94.8517 59.0691 89.9628 71.6768 81.154 80.2835C80.7901 80.6409 80.7901 80.6409 80.4189 81.0056C71.5719 89.5702 59.8491 94.4051 47.51 94.3002C47.2533 94.2992 46.9966 94.2982 46.7322 94.2971C42.6246 94.273 38.7624 93.9634 34.8015 92.8104C34.5511 92.742 34.3007 92.6736 34.0427 92.6032C19.7582 88.6448 7.02655 76.2409 2.21444 62.1437C0.645492 57.1961 -0.0145795 52.3196 0.000243875 47.1303C0.000426953 46.8877 0.000610033 46.6451 0.000798658 46.3951C0.0146959 42.3754 0.358931 38.6039 1.47309 34.7293C1.53986 34.4822 1.60664 34.2351 1.67544 33.9805C4.03207 25.2594 9.21604 18.692 9.21604 18.692C14.1285 27.1881 38.0575 68.2005 38.0575 68.2005C39.8172 66.1992 42.2674 62.1382 42.2674 62.1382C37.4674 53.6932 27.044 36.826 27.044 36.826H22.5651L20.2075 33.0028C20.2075 33.0028 26.3508 32.939 29.3009 33.0028C29.3009 33.0028 41.1895 53.6684 46.8141 62.6434C43.8847 66.8533 40.9203 71.0632 38.0575 75.6099C38.0575 75.6099 18.5567 42.2622 9.21604 25.6646C3.37187 33.1551 2.79463 44.5302 3.7034 53.5931C5.35123 64.8436 11.6714 75.2621 20.6556 82.1667C30.6035 89.3146 42.5898 92.3582 54.769 90.4393C66.3654 88.3115 76.6035 81.8525 83.3935 72.2391C86.8411 67.1928 88.9115 61.7938 90.3488 55.8802C90.439 55.5137 90.5293 55.1471 90.6223 54.7694C92.772 43.7974 89.9166 31.9822 83.8914 22.7021C83.0761 21.5101 82.189 20.3903 81.2592 19.2858C81.0175 18.998 80.7758 18.7102 80.5267 18.4137C74.4771 11.4805 66.633 6.74299 57.6937 4.51371C57.2688 4.40682 56.844 4.29992 56.4063 4.18979C46.1725 1.90075 35.0276 3.76189 25.9197 8.81524C25.0386 9.21392 24.5858 9.43019 24.5858 9.43019C24.5858 9.43019 23.4606 7.68216 23.0187 6.52809C26.0169 4.79991 29.0086 3.3062 32.2976 2.20558C32.567 2.1138 32.8363 2.02203 33.1139 1.92747C37.7624 0.437521 42.3184 -0.038178 47.1734 0.00235792Z" fill="#F4880C"/>
<path d="M21.3354 8.20677C22.3967 10.2722 56.3471 68.638 56.3471 68.638C56.3471 68.638 68.7061 47.5871 74.8628 37.0794C72.1966 37.0794 69.5303 37.0794 66.7832 37.0794C63.3977 43.1161 56.4127 55.0656 56.4127 55.0656C56.4127 55.0656 49.154 42.628 45.6354 36.3736H40.2467L38.5046 33.3864C38.5046 33.3864 44.7259 33.3864 47.9308 33.3864C50.7347 38.2797 56.4127 48.1613 56.4127 48.1613C56.4127 48.1613 61.9451 38.114 64.5666 33.0914H80.9986C73.1493 47.42 65.1792 61.9842 56.4127 75.7783C44.7885 54.5428 32.4512 33.6612 19.9888 12.907L13.9291 18.2786L12.2459 19.9573C12.2459 19.9573 11.1142 17.85 10.8835 17.1862C12.9665 14.3137 17.5132 10.1038 21.3354 8.20677Z" fill="#F4880C"/>
<path d="M125.513 26.9434L131.947 40.2965L138.09 28.56H141.938L131.915 48.0562L125.513 35.0264L119.144 48.0562L109.121 28.56H112.968L119.111 40.2642L125.513 26.9434Z" fill="white"/>
<path d="M150.172 46.6013V28.56H168.117V31.7932H153.729V35.5437H165.853V38.7769H153.697V43.3681H168.117V46.6013H150.172Z" fill="white"/>
<path d="M181.027 28.56V43.3681H195.092V46.6013H177.503V28.56H181.027Z" fill="white"/>
<path d="M206.527 28.56V43.3681H220.591V46.6013H203.002V28.56H206.527Z" fill="white"/>
<path d="M245.993 41.4605C245.993 45.696 241.208 47.2479 236.488 47.2479C233.093 47.2479 229.569 46.4073 227.694 45.114V40.8785C229.472 42.4628 233.319 44.0147 236.553 44.0147C240.077 44.0147 242.308 42.8507 242.308 41.6545C242.308 40.1672 239.527 39.6822 236.585 39.2295C232.317 38.5506 227.273 37.6453 227.273 33.3128C227.273 29.5946 231.929 28.0427 236.197 28.0427C239.204 28.0427 242.502 28.6893 244.183 29.9502V33.7978C241.823 32.1488 238.913 31.2759 235.906 31.2759C234.354 31.2759 231.024 31.6962 231.024 33.3451C231.024 34.994 233.901 35.479 237.038 35.964C241.305 36.643 245.993 37.3543 245.993 41.4605Z" fill="white"/>
<path d="M261.411 31.7932H252.681V28.56H273.665V31.7932H264.935V46.6013H261.411V31.7932Z" fill="white"/>
<path d="M281.585 46.6013V28.56H299.529V31.7932H285.141V35.5437H297.266V38.7769H285.109V43.3681H299.529V46.6013H281.585Z" fill="white"/>
<path d="M158.825 75.5662L157.056 72.8213H152.005L150.236 75.5662H148.047L154.531 65.4961L161.014 75.5662H158.825ZM154.531 68.8977L153.099 71.1374H155.979L154.531 68.8977Z" fill="#F4880C"/>
<path d="M166.134 66.1697V73.8822H173.459V75.5662H164.298V66.1697H166.134Z" fill="#F4880C"/>
<path d="M184.062 71.4742V67.1127H185.881V71.6931C185.881 74.5726 183.557 75.8693 181.25 75.8693C178.943 75.8693 176.653 74.5726 176.653 71.6931V67.1127H178.438V71.4742C178.438 73.3434 179.852 74.2022 181.25 74.2022C182.648 74.2022 184.062 73.3434 184.062 71.4742Z" fill="#F4880C"/>
<path d="M202.822 75.5662L200.885 70.3291L197.046 76.0377L193.223 70.3291C192.583 72.0467 191.893 73.8654 191.287 75.5662H189.417L192.752 66.4223L197.046 72.855L201.34 66.4223L204.674 75.5662H202.822Z" fill="#F4880C"/>
<path d="M210.313 75.5662H208.528V67.1127H210.313V75.5662Z" fill="#F4880C"/>
<path d="M216.959 75.5662H215.191V66.5233L223.206 72.5856V67.1127H224.991V76.1219L216.959 70.0596V75.5662Z" fill="#F4880C"/>
<path d="M236.91 71.4742V67.1127H238.728V71.6931C238.728 74.5726 236.405 75.8693 234.098 75.8693C231.791 75.8693 229.5 74.5726 229.5 71.6931V67.1127H231.285V71.4742C231.285 73.3434 232.7 74.2022 234.098 74.2022C235.495 74.2022 236.91 73.3434 236.91 71.4742Z" fill="#F4880C"/>
<path d="M255.669 75.5662L253.733 70.3291L249.893 76.0377L246.071 70.3291C245.431 72.0467 244.74 73.8654 244.134 75.5662H242.265L245.599 66.4223L249.893 72.855L254.187 66.4223L257.522 75.5662H255.669Z" fill="#F4880C"/>
<path d="M130.702 70.5143H140.806V72.1983H130.702V70.5143Z" fill="#F4880C"/>
<path d="M266.093 70.5143H276.197V72.1983H266.093V70.5143Z" fill="#F4880C"/>
</svg>
