<svg width="52" height="52" viewBox="0 0 52 52" fill="none" xmlns="http://www.w3.org/2000/svg">
<path fill-rule="evenodd" clip-rule="evenodd" d="M26 49.2632C38.8479 49.2632 49.2632 38.8479 49.2632 26C49.2632 13.1521 38.8479 2.73684 26 2.73684C13.1521 2.73684 2.73684 13.1521 2.73684 26C2.73684 38.8479 13.1521 49.2632 26 49.2632ZM26 52C40.3594 52 52 40.3594 52 26C52 11.6406 40.3594 0 26 0C11.6406 0 0 11.6406 0 26C0 40.3594 11.6406 52 26 52Z" fill="white"/>
<path d="M31.9488 30.7514L31.1878 31.5172C31.1878 31.5172 29.3764 33.3361 24.4342 28.3696C19.4919 23.4032 21.3033 21.5843 21.3033 21.5843L21.7816 21.1008C22.9641 19.9142 23.0761 18.0074 22.0442 16.6145L19.9368 13.7695C18.659 12.0453 16.1921 11.8171 14.7287 13.2877L12.1028 15.9248C11.3786 16.6551 10.8936 17.5983 10.9521 18.6464C11.1027 21.3291 12.3035 27.0984 19.0002 33.8297C26.1034 40.9666 32.7683 41.2506 35.4928 40.9937C36.3558 40.9125 37.1051 40.4696 37.7089 39.8611L40.0838 37.4742C41.6894 35.8633 41.2378 33.0994 39.184 31.9719L35.9895 30.2156C34.6415 29.4769 33.0024 29.6932 31.9488 30.7514Z" fill="white"/>
</svg>
