<svg width="330" height="290" viewBox="0 0 330 290" fill="none" xmlns="http://www.w3.org/2000/svg">
<path d="M0 227.889C0 234.018 2.43491 239.897 6.76909 244.231C11.1033 248.565 16.9817 251 23.1111 251H184.889C191.018 251 196.897 248.565 201.231 244.231C205.565 239.897 208 234.018 208 227.889V66.1111C208 59.9817 205.565 54.1033 201.231 49.7691C196.897 45.4349 191.018 43 184.889 43H23.1111C16.9817 43 11.1033 45.4349 6.76909 49.7691C2.43491 54.1033 0 59.9817 0 66.1111V227.889ZM104 77.6667H173.333V147H150.222V100.778H104V77.6667ZM34.6667 147H57.7778V193.222H104V216.333H34.6667V147Z" fill="white"/>
</svg>
